<?xml version="1.0" encoding="UTF-8"?>
<!DOCTYPE svg PUBLIC "-//W3C//DTD SVG 1.1//EN" "http://www.w3.org/Graphics/SVG/1.1/DTD/svg11.dtd">
<!-- Creator: CorelDRAW X7 -->
<svg xmlns="http://www.w3.org/2000/svg" xml:space="preserve" width="2.51431in" height="2.13392in" version="1.1" style="shape-rendering:geometricPrecision; text-rendering:geometricPrecision; image-rendering:optimizeQuality; fill-rule:evenodd; clip-rule:evenodd"
viewBox="0 0 2514 2134"
 xmlns:xlink="http://www.w3.org/1999/xlink">
 <defs>
  <style type="text/css">
   <![CDATA[
    .str0 {stroke:#3B3B3B;stroke-width:3.47229}
    .fil3 {fill:none;fill-rule:nonzero}
    .fil0 {fill:#1D1D1B;fill-rule:nonzero}
    .fil2 {fill:#3B3B3B;fill-rule:nonzero}
    .fil1 {fill:#497593;fill-rule:nonzero}
   ]]>
  </style>
 </defs>
 <g id="Capa_x0020_1">
  <metadata id="CorelCorpID_0Corel-Layer"/>
  <path class="fil0" d="M1912 717c-66,-35 -286,-150 -363,-192 -99,-54 -161,-105 -161,-231 0,-124 94,-236 266,-236 173,0 303,123 392,265 8,14 23,15 22,0 -1,-22 -4,-206 -4,-206 0,0 -210,-117 -408,-117 -159,0 -327,83 -386,221 -18,-17 -35,-34 -54,-49 -169,-130 -303,-148 -529,-148l-330 1c0,0 8,215 8,409l0 516c0,207 -10,412 -10,412l416 0c199,0 349,-55 459,-142 10,9 20,17 25,20 13,8 194,146 459,146 266,0 447,-146 447,-352 0,-206 -183,-282 -249,-317zm-198 601c-212,0 -346,-111 -445,-309 0,0 -9,-10 -19,11 -65,126 -173,229 -336,255 -52,9 -96,11 -149,11l-256 0 -1 -1187 175 0c150,0 289,14 429,140 75,68 125,145 164,224 38,79 103,139 194,188 147,77 297,158 411,219 105,56 136,123 136,221 0,99 -91,227 -303,227z"/>
  <path class="fil1" d="M123 1627c-17,0 -41,2 -62,15 -37,22 -59,60 -61,103 -1,30 8,60 25,82 9,11 20,21 33,27 25,14 54,17 75,17 3,0 6,0 8,0 14,-1 28,-4 41,-8 4,-1 11,-3 19,-6l2 -1 10 -40 1 -5 -11 -3 -4 9c-3,4 -5,7 -8,11 -5,6 -10,11 -15,15 -7,4 -13,7 -18,9 -8,2 -16,3 -25,3 -12,0 -23,-2 -32,-5 -5,-2 -10,-5 -14,-7 -13,-8 -24,-21 -32,-39 -7,-15 -12,-37 -12,-58 -1,-33 9,-63 26,-81 15,-14 33,-22 55,-22 13,0 27,4 39,10 13,8 21,24 28,38l0 1c1,2 2,4 3,6l1 3 12 0 0 -63 -12 0c0,0 -1,2 -3,2 -1,0 -3,-1 -5,-1 -1,0 -3,-1 -4,-1 -1,0 -1,-1 -2,-1l-2 0c-5,-2 -10,-3 -15,-4 -10,-2 -19,-4 -29,-5 -5,0 -10,0 -14,0l2 -1zm209 228l-6 0c-8,0 -11,-2 -13,-4 -3,-4 -2,-11 1,-22l18 -49 78 0 23 56c3,8 3,13 1,16 -1,2 -3,3 -7,4 0,0 -2,0 -6,0l-4 0 0 12 92 0 0 -12 -4 0c0,0 -1,0 -2,0 -1,0 -2,0 -3,0 -1,0 -1,0 -2,0l0 0c-8,-3 -15,-10 -21,-24l-86 -199 -2 -2 -19 0 -74 201c-7,17 -15,24 -26,24l-6 0 0 12 68 0 0 -13zm36 -173l35 83 -65 0 30 -83zm357 77c-18,-18 -42,-26 -65,-33l-6 -2c-15,-5 -51,-18 -51,-46 0,-19 16,-31 30,-35 5,-1 9,-1 14,-1 5,0 9,0 15,1 11,2 20,7 26,14 8,9 18,28 21,37l1 3 12 0 0 -46 0 0 0 -16 0 0 0 0 -8 0 -3 0c0,0 -3,4 -7,2 0,0 -7,-2 -10,-4 -15,-4 -31,-7 -46,-7l-1 0c-18,0 -35,5 -48,12 -8,4 -15,10 -20,17 -17,20 -19,51 -3,71 15,20 43,30 67,39l11 3 0 0c9,3 19,7 28,13 16,10 27,30 16,50 -10,18 -32,24 -50,24 -2,0 -5,0 -8,-1 -7,0 -14,-2 -21,-5 -19,-9 -32,-27 -41,-57l-1 -4 -12 0 0 68 11 0c0,0 2,-4 6,-2 1,0 18,7 37,13 10,2 21,4 31,4 18,0 34,-4 49,-11 10,-5 28,-16 36,-35 4,-8 6,-16 6,-25 0,-15 -7,-29 -18,-41l2 0zm130 96l-7 0c-8,0 -10,-2 -12,-4 -3,-4 -2,-11 1,-22l18 -49 77 0 24 56c3,8 3,13 1,16 -1,2 -3,3 -7,4 0,0 -2,0 -6,0l-4 0 0 12 92 0 0 -12 -4 0c0,0 -1,0 -2,0 -2,0 -3,0 -3,0 -1,0 -2,0 -2,0l0 0c-8,-3 -15,-10 -21,-24l-87 -199 -1 -2 -19 0 -75 201c-6,17 -14,24 -25,24l-6 0 0 12 68 0 0 -13zm36 -173l35 83 -65 0 30 -83zm262 -37c2,-2 5,-3 9,-3l6 0 0 -13 -83 0 0 13 6 0c4,0 7,1 9,3 4,4 6,11 6,22l0 164c0,11 -2,18 -6,21 -2,2 -5,4 -9,4l-6 0 0 12 83 0 0 -12 -6 0c-4,0 -7,-2 -9,-4 -4,-3 -6,-11 -6,-21l0 -88 116 0 0 88c0,11 -2,18 -6,21 -2,2 -5,4 -9,4l-6 0 0 12 83 0 0 -12 -7 0c-4,0 -7,-2 -9,-4 -4,-3 -5,-11 -5,-21l0 -164c0,-11 1,-18 5,-22 2,-2 5,-3 9,-3l7 0 0 -13 -83 0 0 13 6 0c4,0 7,1 9,3 4,4 6,11 6,22l0 60 -116 0 0 -60c0,-11 2,-18 6,-22l0 0zm246 207c-3,2 -6,4 -10,4l-6 0 0 12 84 0 0 -12 -7 0c-4,0 -7,-2 -9,-4 -4,-3 -6,-11 -6,-21l0 -164c0,-11 2,-18 6,-22 2,-2 5,-3 9,-3l6 0 0 -13 -83 0 0 13 6 0c4,0 7,1 10,3 3,4 5,11 5,22l0 164c0,11 -2,18 -5,21zm136 0c-2,2 -5,4 -9,4l-7 0 0 12 173 0 0 -52 -12 0 -1 2c-6,14 -10,19 -12,21 -9,9 -22,13 -41,13l-44 0 0 -106 27 0c24,0 35,6 41,19l2 5 12 0 0 -60 -12 0 -2 4c-6,12 -17,17 -40,17l-28 0 0 -86 37 0c29,0 44,8 52,29l2 3 13 0 0 -48 -166 0 0 13 6 0c4,0 7,1 9,3 4,4 6,11 6,22l0 164c0,11 -2,18 -6,21l0 0zm230 0c-2,2 -5,4 -10,4 0,0 0,0 -1,0l-5 0 0 12 83 0 0 -12 -6 0c-4,0 -7,-2 -9,-4 -4,-3 -6,-10 -6,-21l0 -71 20 0c1,0 2,1 2,1l1 1c1,0 1,0 2,0 3,3 6,5 9,7 8,7 14,14 19,24 4,6 7,13 11,21l0 0c8,16 14,29 24,38 10,11 23,16 39,16l6 0c6,0 23,0 23,0l4 0 0 -12 -5 -1c-12,-2 -23,-14 -29,-21l-1 -1c-9,-10 -16,-20 -23,-30l-7 -9 -4 -6c-2,-2 -3,-5 -5,-7 -8,-9 -15,-16 -24,-21 20,-3 36,-10 48,-20 13,-11 20,-27 20,-45 0,-20 -8,-37 -23,-47 -14,-11 -35,-17 -62,-17l-105 0 0 13 6 0c4,0 7,1 9,3 3,4 5,11 5,22l0 164c0,11 -2,18 -5,21l-1 -2zm91 -205c27,0 42,17 42,48 0,32 -19,52 -51,52l-34 0 0 -100 43 0zm178 205c-2,2 -5,4 -10,4 0,0 0,0 -1,0l-5 0 0 12 83 0 0 -12 -6 0c-4,0 -7,-2 -9,-4 -4,-3 -6,-10 -6,-21l0 -71 21 0c0,0 1,1 1,1l2 1c0,0 0,0 1,0 3,3 6,5 9,7 8,7 14,14 19,24 4,6 7,13 11,21l0 0c8,16 15,29 24,38 10,11 23,16 40,16l5 0c6,0 23,0 23,0l4 0 0 -12 -5 -1c-12,-2 -23,-14 -29,-21l-1 -1c-9,-10 -16,-20 -23,-30l-6 -9 -5 -6c-1,-2 -3,-5 -5,-7 -7,-9 -15,-16 -24,-21 20,-3 37,-10 48,-20 14,-11 20,-27 20,-45 0,-20 -8,-37 -22,-47 -15,-11 -36,-17 -63,-17l-105 0 0 13 6 0c4,0 7,1 9,3 4,4 5,11 5,22l0 164c0,11 -1,18 -5,21l-1 -2zm91 -205c27,0 42,17 42,48 0,32 -19,52 -51,52l-34 0 0 -100 43 0zm151 101c0,36 12,66 34,88 23,23 51,34 85,34 33,0 61,-11 84,-35 23,-23 35,-53 35,-88 0,-34 -11,-63 -34,-86 -23,-23 -51,-35 -82,-35 -32,0 -59,10 -82,31 -26,23 -40,53 -40,90l0 1zm68 -84c12,-15 29,-22 50,-22 22,0 39,7 51,22 16,19 25,49 25,87 0,36 -7,62 -22,79 -14,16 -32,24 -53,24 -21,0 -38,-7 -50,-22 -16,-20 -24,-49 -24,-86 0,-36 8,-64 23,-82l0 0z"/>
  <g id="_684989592">
   <path class="fil2" d="M859 2130l-43 -105 -6 0 -44 105 6 0 11 -28 59 0 12 28 5 0zm-19 -33l-55 0 28 -66 27 66zm93 33c19,0 30,-10 30,-28 0,-13 -9,-24 -20,-26 9,-2 18,-11 18,-24 0,-18 -11,-27 -28,-27l-40 0 0 105 40 0zm0 -56l-35 0 0 -44 35 0c15,0 23,10 23,22 0,12 -8,22 -23,22zm0 51l-35 0 0 -47 35 0c17,0 25,12 25,24 0,14 -9,23 -25,23zm118 7c30,0 50,-24 50,-54 0,-31 -20,-55 -50,-55 -31,0 -50,24 -50,55 0,30 19,54 50,54zm0 -5c-28,0 -45,-21 -45,-49 0,-29 17,-50 45,-50 27,0 44,21 44,50 0,28 -17,49 -44,49zm139 5c16,0 30,-7 39,-17l0 -35 -49 0 0 4 44 0 0 29c-6,7 -18,14 -34,14 -26,0 -47,-20 -47,-49 0,-30 21,-50 47,-50 14,0 27,6 35,15l4 -4c-11,-10 -23,-16 -39,-16 -29,0 -52,22 -52,55 0,32 23,54 52,54zm163 -2l-44 -105 -6 0 -44 105 6 0 12 -28 58 0 12 28 6 0zm-20 -33l-55 0 28 -66 27 66zm85 33c32,0 52,-24 52,-52 0,-29 -20,-53 -52,-53l-32 0 0 105 32 0zm0 -5l-27 0 0 -95 27 0c29,0 46,21 46,48 0,26 -17,47 -46,47zm139 7c31,0 50,-24 50,-54 0,-31 -19,-55 -50,-55 -30,0 -50,24 -50,55 0,30 20,54 50,54zm0 -5c-27,0 -44,-21 -44,-49 0,-29 17,-50 44,-50 27,0 45,21 45,50 0,28 -18,49 -45,49zm122 5c28,0 36,-17 36,-29 0,-39 -64,-23 -64,-53 0,-13 12,-22 28,-22 12,0 22,4 30,14l4 -4c-8,-9 -19,-15 -34,-15 -18,0 -33,10 -33,27 0,36 64,19 64,53 0,10 -7,24 -31,24 -15,0 -26,-8 -33,-15l-4 3c8,10 21,17 37,17z"/>
   <path class="fil3 str0" d="M859 2130l-43 -105 -6 0 -44 105 6 0 11 -28 59 0 12 28 5 0zm-19 -33l-55 0 28 -66 27 66z"/>
   <path class="fil3 str0" d="M933 2130c19,0 30,-10 30,-28 0,-12 -9,-24 -20,-26 9,-2 18,-11 18,-24 0,-18 -11,-27 -28,-27l-40 0 0 105 40 0zm0 -56l-35 0 0 -44 35 0c15,0 23,10 23,22 0,12 -8,22 -23,22zm0 51l-35 0 0 -47 35 0c17,0 25,12 25,24 0,14 -9,23 -25,23z"/>
   <path class="fil3 str0" d="M1051 2132c30,0 50,-24 50,-54 0,-31 -20,-55 -50,-55 -31,0 -50,24 -50,55 0,30 19,54 50,54zm0 -5c-28,0 -45,-21 -45,-49 0,-29 17,-50 45,-50 27,0 44,21 44,50 0,28 -17,49 -44,49z"/>
   <path class="fil3 str0" d="M1190 2132c16,0 30,-7 39,-17l0 -35 -49 0 0 4 44 0 0 29c-7,7 -18,14 -34,14 -26,0 -47,-20 -47,-49 0,-30 21,-50 47,-50 14,0 27,6 35,15l4 -4c-11,-10 -23,-16 -39,-16 -29,0 -52,22 -52,55 0,32 23,54 52,54z"/>
   <path class="fil3 str0" d="M1353 2130l-44 -105 -6 0 -44 105 6 0 11 -28 59 0 12 28 6 0zm-20 -33l-55 0 28 -66 27 66z"/>
   <path class="fil3 str0" d="M1418 2130c32,0 52,-24 52,-52 0,-29 -20,-53 -52,-53l-32 0 0 105 32 0zm0 -5l-27 0 0 -95 27 0c29,0 46,21 46,48 0,26 -17,47 -46,47z"/>
   <path class="fil3 str0" d="M1557 2132c31,0 50,-24 50,-54 0,-31 -19,-55 -50,-55 -30,0 -50,24 -50,55 0,30 20,54 50,54zm0 -5c-27,0 -44,-21 -44,-49 0,-29 17,-50 44,-50 27,0 45,21 45,50 0,28 -18,49 -45,49z"/>
   <path class="fil3 str0" d="M1679 2132c28,0 36,-17 36,-29 0,-39 -64,-23 -64,-53 0,-13 12,-22 27,-22 13,0 23,4 31,14l4 -4c-8,-9 -19,-15 -35,-15 -17,0 -32,10 -32,27 0,36 63,19 63,53 0,10 -6,24 -30,24 -15,0 -26,-8 -33,-15l-4 3c8,10 21,17 37,17z"/>
  </g>
 </g>
</svg>
